{"title":"Shaun.the.Sheep.The.Movie.2015.720p.WEB-DL.XviD.AC3-RARBG","uid":11884354,"size":2531018733,"categoryP":"video","categoryS":"hd___movies","magnet":"?xt=urn:btih:798eaef05a4a66878060f684f43bcd050d5f6375&amp;dn=Shaun.the.Sheep.The.Movie.2015.720p.WEB-DL.XviD.AC3-RARBG&amp;tr=udp%3A%2F%2Ftracker.openbittorrent.com%3A80&amp;tr=udp%3A%2F%2Fopen.demonii.com%3A1337&amp;tr=udp%3A%2F%2Ftracker.coppersurfer.tk%3A6969&amp;tr=udp%3A%2F%2Fexodus.desync.com%3A6969","seeders":17,"leechers":8,"uploader":"vickey1992","files":4,"time":1430772150,"description":"Format                                   : AVI\nFormat/Info                              : Audio Video Interleave\nFormat profile                           : OpenDML\nFile size                                : 2.36 GiB\nDuration                                 : 1h 21mn\nOverall bit rate                         : 4 136 Kbps\nMovie name                               : RARBG.COM - Shaun.the.Sheep.The.Movie.2015.720p.WEB-DL.XviD.AC3-RARBG\nWriting library                          : VirtualDub build 35491/release\nComment                                  : RARBG.COM - Shaun.the.Sheep.The.Movie.2015.720p.WEB-DL.XviD.AC3-RARBG\n\nVideo\nID                                       : 0\nFormat                                   : MPEG-4 Visual\nFormat profile                           : Simple@L5\nFormat settings, BVOP                    : No\nFormat settings, QPel                    : No\nFormat settings, GMC                     : No warppoints\nFormat settings, Matrix                  : Default (H.263)\nCodec ID                                 : XVID\nCodec ID/Hint                            : XviD\nDuration                                 : 1h 21mn\nBit rate                                 : 3 740 Kbps\nWidth                                    : 1 280 pixels\nHeight                                   : 692 pixels\nDisplay aspect ratio                     : 1.85:1\nFrame rate                               : 25.000 fps\nColor space                              : YUV\nChroma subsampling                       : 4:2:0\nBit depth                                : 8 bits\nScan type                                : Progressive\nCompression mode                         : Lossy\nBits/(Pixel*Frame)                       : 0.169\nStream size                              : 2.13 GiB (90%)\nWriting library                          : Lavc56.13.100\n\nAudio\nID                                       : 1\nFormat                                   : AC-3\nFormat/Info                              : Audio Coding 3\nMode extension                           : CM (complete main)\nFormat settings, Endianness              : Big\nCodec ID                                 : 2000\nDuration                                 : 1h 21mn\nBit rate mode                            : Constant\nBit rate                                 : 384 Kbps\nChannel(s)                               : 6 channels\nChannel positions                        : Front: L C R, Side: L R, LFE\nSampling rate                            : 48.0 KHz\nBit depth                                : 16 bits\nCompression mode                         : Lossy\nStream size                              : 224 MiB (9%)\nAlignment                                : Aligned on interleaves\nInterleave, duration                     : 40 ms (1.00 video frame)\nInterleave, preload duration             : 512 ms\nNotes:\nGreetz to all!","torrent":{"xt":"urn:btih:798eaef05a4a66878060f684f43bcd050d5f6375","amp;dn":"Shaun.the.Sheep.The.Movie.2015.720p.WEB-DL.XviD.AC3-RARBG","amp;tr":["udp%3A%2F%2Ftracker.openbittorrent.com%3A80","udp%3A%2F%2Fopen.demonii.com%3A1337","udp%3A%2F%2Ftracker.coppersurfer.tk%3A6969","udp%3A%2F%2Fexodus.desync.com%3A6969"],"infoHash":"798eaef05a4a66878060f684f43bcd050d5f6375","infoHashBuffer":{"type":"Buffer","data":[121,142,174,240,90,74,102,135,128,96,246,132,244,59,205,5,13,95,99,117]},"announce":[],"urlList":[]}}